<svg xmlns="http://www.w3.org/2000/svg" viewBox="0 0 400 300">

    <linearGradient id="wallGrad" x1="0%" y1="0%" x2="100%" y2="80%">
        <stop offset="20%" style="stop-color:#d1d1ff;stop-opacity:1" />
        <stop offset="100%" style="stop-color:#8080aa;stop-opacity:1" />
    </linearGradient>
    <rect x="0" y="0" width="400" height="300" fill="url(#wallGrad)" />

    

    <rect id="leg1" x="200" y="240" width="10" height="30" rx="5" ry="5" style="fill:red;stroke:black;stroke-width:3" />
    <path id="pathLeg1" fill="none" stroke="#000000" stroke-miterlimit="10" d="M0,0 L-4,4 L0,0"/>
    <animateMotion 
        href="#leg1"
        dur="0.5s"
        begin="0s"
        fill="freeze"
        repeatCount="indefinite"
        >
            <mpath href="#pathLeg1" />
    </animateMotion>

    <rect id="leg2" x="190" y="240" width="11" height="30" rx="5" ry="5" style="fill:red;stroke:black;stroke-width:3" />
    <path id="pathLeg2" fill="none" stroke="#000000" stroke-miterlimit="10" d="M0,0 L-4,4 L0,0"/>
    <animateMotion 
        href="#leg2"
        dur="0.5s"
        begin="0.25s"
        fill="freeze"
        repeatCount="indefinite"
        >
            <mpath href="#pathLeg2" />
    </animateMotion>

    <g id="body">
        <rect x="180" y="195" width="40" height="55" rx="10" ry="10" style="fill:red;stroke:black;stroke-width:3" />
        <rect x="195" y="205" width="28" height="18" rx="5" ry="5" style="fill:#aaaaff;stroke:black;stroke-width:3" />
    </g>
    <path id="pathBody" fill="none" stroke="#000000" stroke-miterlimit="10" d="M0,0 L0,4 L0,0"/>
    <animateMotion 
        href="#body"
        dur="0.25s"
        begin="0.125s"
        fill="freeze"
        repeatCount="indefinite"
        >
            <mpath href="#pathBody" />
    </animateMotion>

    <g id="wheel">
        <circle cx="200" cy="150" r="125" style="stroke:black;stroke-width:5;fill-opacity:0" />
        <line x1="200" y1="25" x2="200" y2="275" style="stroke:black;stroke-width:5" />
        <line x1="288.39" y1="61.61" x2="111.61" y2="238.39" style="stroke:black;stroke-width:5" />
        <line x1="75" y1="150" x2="325" y2="150" style="stroke:black;stroke-width:5" />
        <line x1="111.61" y1="61.61" x2="288.38" y2="238.39" style="stroke:black;stroke-width:5" />
    </g>
    <animateTransform
        attributeName="transform"
        href="#wheel"
        type="rotate"
        from="0 200 150"
        to="360 200 150"
        dur="5s"
        repeatCount="indefinite"
    />

    <polygon
        points="200,150 290,298 110,298"
        style="stroke:black;stroke-width:5;fill-opacity:0"
    />


</svg>