<svg xmlns="http://www.w3.org/2000/svg" viewBox="0 0 400 300">
    <circle cx="200" cy="150" r="146" fill='rgba(30, 30, 30, 0.5)' stroke='silver'/>
    <g visibility='hidden'>
      <g fill="#61DAFB" stroke='#61DAFB' stroke-width='2' >
        <path d="M200 10 L200 290 Z" transform="rotate(45, 200, 150)" />
        <path d="M200 10 L200 290 Z" transform="rotate(90, 200, 150)" />
        <path d="M200 10 L200 290 Z" transform="rotate(135, 200, 150)" />
        <path d="M200 10 L200 290 Z" transform="rotate(180, 200, 150)" />
        <path d="M200 10 L200 290 Z" transform="rotate(67.5, 200, 150)" />
        <path d="M200 10 L200 290 Z" transform="rotate(112.5, 200, 150)" />
        <path d="M200 10 L200 290 Z" transform="rotate(157.5, 200, 150)" />
        <path d="M200 10 L200 290 Z" transform="rotate(202.5, 200, 150)" />
        <path d="M200 10 L200 290 Z" transform="rotate(360, 200, 150)" />
      </g>
      <animate attributeName='visibility' from='hidden' to='visible' dur='10s' repeatCount='indefinite' />
    </g>
    <g>
      <g fill='red'>
        <circle cx='200' cy='10' r='8'/>
        <circle cx='200' cy='150' r='8'/>
        <circle cx='270' cy='80' r='8'/>
        <circle cx='130' cy='80' r='8'/>
        <circle cx='150.5' cy='30.5' r='8'/>
        <circle cx='249.5' cy='30.5' r='8'/>
        <circle cx='150.5' cy='129.5' r='8'/>
        <circle cx='249.5' cy='129.5' r='8'/>
      </g>
      <animateTransform dur="8s" repeatCount="indefinite"
      type='rotate' from='0 200 80' to='360 200 80' attributeName="transform" />
      <animateMotion dur='8s' repeatCount='indefinite' path="M-70, 70 a 70,70 0 1,0 140,0 a 70,70 0 1,0 -140,0" />
    </g>
</svg>
